Patient4_TMGait_0pt6_02_right_31_GRF.mot
version=1
nRows=71
nColumns=19
inDegrees=no
endheader
time	F1x	F1y	F1z	M1x	M1y	M1z	F2x	F2y	F2z	M2x	M2y	M2z	EC1x	EC1y	EC1z	EC2x	EC2y	EC2z
37.31	1.0589	761.7543	49.7785	-253.4964	-56.1116	811.8393	14.262	0.41069	-11.4385	4.4784	8.5552	-4.6526	-0.0592	0.0182	-0.0073	-0.0462	0.0165	0.9585
37.3219	1.581	754.7777	52.8763	-251.0434	-57.9667	807.506	9.7625	1.3308	-7.8871	3.5201	5.9535	-1.9787	-0.0592	0.0182	-0.0073	-0.0462	0.0165	0.9585
37.3339	2.3826	748.1099	55.0926	-248.6867	-58.8606	801.9225	5.8392	2.2524	-4.7948	2.7282	3.6845	0.50235	-0.0592	0.0182	-0.0073	-0.0462	0.0165	0.9585
37.3458	3.4366	742.2571	56.3536	-246.5875	-58.7724	795.5012	2.722	3.1021	-2.3848	2.1518	1.9301	2.6294	-0.0592	0.0182	-0.0073	-0.0462	0.0165	0.9585
37.3577	4.7605	737.5531	56.7011	-244.8507	-57.7628	788.7462	0.53438	3.761	-0.67626	1.7656	0.6849	4.2024	-0.0592	0.0182	-0.0073	-0.0462	0.0165	0.9585
37.3696	6.3419	734.1978	56.4061	-243.5252	-56.0987	782.164	-0.91262	4.2566	0.41252	1.5417	-0.09172	5.3328	-0.0592	0.0182	-0.0073	-0.0462	0.0165	0.9585
37.3816	8.1743	732.2204	55.6972	-242.611	-54.0013	776.0954	-1.6972	4.5151	1.0124	1.4138	-0.51575	5.9452	-0.0592	0.0182	-0.0073	-0.0462	0.0165	0.9585
37.3935	10.2627	731.5458	54.8599	-242.0711	-51.7379	770.7575	-2.0971	4.5641	1.2671	1.3321	-0.66981	6.168	-0.0592	0.0182	-0.0073	-0.0462	0.0165	0.9585
37.4054	12.6024	731.9644	54.0913	-241.8319	-49.5022	766.1608	-2.1778	4.2919	1.2997	1.2159	-0.66804	5.8688	-0.0592	0.0182	-0.0073	-0.0462	0.0165	0.9585
37.4174	15.1601	733.1378	53.5389	-241.7804	-47.4473	762.1223	-2.1574	3.6851	1.2108	1.0125	-0.56677	5.1128	-0.0592	0.0182	-0.0073	-0.0462	0.0165	0.9585
37.4293	17.9184	734.6838	53.2636	-241.7963	-45.6361	758.3675	-2.0273	2.601	1.0691	0.64717	-0.44338	3.7118	-0.0592	0.0182	-0.0073	-0.0462	0.0165	0.9585
37.4412	20.8492	736.1772	53.2528	-241.7551	-44.0623	754.5446	-1.9197	1.0346	0.9259	0.086199	-0.3233	1.7249	-0.0592	0.0182	-0.0073	-0.0462	0.0165	0.9585
37.4531	23.9383	737.2296	53.4966	-241.5453	-42.722	750.3079	-1.7466	-1.0824	0.8099	-0.70213	-0.2636	-0.95757	-0.0592	0.0182	-0.0073	-0.0462	0.0165	0.9585
37.4651	27.2034	737.5516	53.9278	-241.0873	-41.5471	745.3881	-1.5601	-3.6175	0.73962	-1.6805	-0.28209	-4.1355	-0.0592	0.0182	-0.0073	-0.0462	0.0165	0.9585
37.477	30.6709	736.9617	54.5234	-240.3391	-40.5103	739.6096	-1.2105	-6.3537	0.71283	-2.7554	-0.42327	-7.5807	-0.0592	0.0182	-0.0073	-0.0462	0.0165	0.9585
37.4889	34.3658	735.4601	55.2244	-239.3167	-39.5471	732.9643	-0.67757	-8.7305	0.7253	-3.7047	-0.6972	-10.5776	-0.0592	0.0182	-0.0073	-0.0462	0.0165	0.9585
37.5009	38.3462	733.1647	56.0127	-238.0712	-38.6247	725.5483	0.20102	-9.9046	0.74735	-4.1747	-1.1162	-12.118	-0.0592	0.0182	-0.0073	-0.0462	0.0165	0.9585
37.5128	42.6212	730.3382	56.8261	-236.6945	-37.6767	717.5999	1.4644	-8.5038	0.74718	-3.6095	-1.6524	-10.4867	-0.0592	0.0182	-0.0073	-0.0462	0.0165	0.9585
37.5247	47.233	727.2583	57.6321	-235.2813	-36.6569	709.3591	3.2	-2.7383	0.67285	-1.2725	-2.2549	-3.5029	-0.0592	0.0182	-0.0073	-0.0462	0.0165	0.9585
37.5366	52.1763	724.1436	58.3655	-233.9032	-35.4977	701.0736	5.3343	9.6809	0.47787	3.7613	-2.819	11.654	-0.0592	0.0182	-0.0073	-0.0462	0.0165	0.9585
37.5486	57.464	720.9533	58.9651	-232.5524	-34.1292	692.7204	7.6959	31.1919	0.094376	12.4849	-3.1706	37.9722	-0.0592	0.0182	-0.0073	-0.0462	0.0165	0.9585
37.5605	62.99	717.3267	59.3351	-231.1167	-32.4783	684.0443	9.8352	63.9945	-0.53179	25.7861	-3.0439	78.1895	-0.0592	0.0182	-0.0073	-0.0462	0.0165	0.9585
37.5724	68.621	712.4395	59.3255	-229.3417	-30.4382	674.339	11.0084	109.1924	-1.4552	44.1098	-2.0554	133.6935	-0.0592	0.0182	-0.0073	-0.0462	0.0165	0.9585
37.5844	74.0127	705.0858	58.7576	-226.8448	-27.9478	662.6184	10.054	165.5968	-2.6808	66.9695	0.27435	203.0755	-0.0592	0.0182	-0.0073	-0.0462	0.0165	0.9585
37.5963	78.7717	693.7085	57.4088	-223.1362	-24.9426	647.5351	5.4765	228.1465	-4.1701	92.3105	4.4658	280.1813	-0.0592	0.0182	-0.0073	-0.0462	0.0165	0.9585
37.6082	82.3625	676.8228	55.1292	-217.7376	-21.4843	627.8727	-3.2304	287.3865	-6.0301	116.3078	10.7263	353.4838	-0.0592	0.0182	-0.0073	-0.0462	0.0165	0.9585
37.6201	84.3796	653.3366	51.8765	-210.2954	-17.704	602.6685	-13.8036	334.1968	-8.8722	135.2641	18.7115	411.6975	-0.0592	0.0182	-0.0073	-0.0462	0.0165	0.9585
37.6321	84.5082	623.0255	47.8173	-200.7059	-13.8796	571.8179	-24.2457	366.3031	-12.1969	148.2161	27.0344	451.8117	-0.0592	0.0182	-0.0073	-0.0462	0.0165	0.9585
37.644	82.8273	586.2891	43.3077	-189.0577	-10.3112	535.6849	-33.3425	386.9131	-15.5768	156.4262	34.7656	477.5665	-0.0592	0.0182	-0.0073	-0.0462	0.0165	0.9585
37.6559	79.5551	543.9292	38.7635	-175.5634	-7.2866	495.0306	-40.5543	400.9491	-18.6328	161.8962	41.2686	494.9899	-0.0592	0.0182	-0.0073	-0.0462	0.0165	0.9585
37.6679	75.0428	496.9935	34.4063	-160.5361	-4.8787	450.7532	-45.8689	413.1194	-21.1169	166.5418	46.3113	509.8631	-0.0592	0.0182	-0.0073	-0.0462	0.0165	0.9585
37.6798	69.5145	446.7875	30.3386	-144.3811	-3.1039	404.0424	-49.5656	426.6093	-23.0699	171.6662	50.0534	526.1051	-0.0592	0.0182	-0.0073	-0.0462	0.0165	0.9585
37.6917	63.1894	394.7913	26.5139	-127.5835	-1.8489	356.1733	-51.9192	443.1544	-24.5408	177.9799	52.7173	545.7807	-0.0592	0.0182	-0.0073	-0.0462	0.0165	0.9585
37.7036	56.1886	342.6491	22.8856	-110.6845	-1.0294	308.6036	-53.2371	463.5797	-26.0968	185.7865	55.0618	569.8623	-0.0592	0.0182	-0.0073	-0.0462	0.0165	0.9585
37.7156	48.7188	291.9128	19.4295	-94.2109	-0.54797	262.6247	-53.7453	487.9329	-28.0619	195.0822	57.5929	598.3327	-0.0592	0.0182	-0.0073	-0.0462	0.0165	0.9585
37.7275	40.9941	244.001	16.1963	-78.6389	-0.36438	219.4465	-53.7657	515.6125	-30.9472	205.5963	60.9832	630.4546	-0.0592	0.0182	-0.0073	-0.0462	0.0165	0.9585
37.7394	33.3351	200.0021	13.2898	-64.3391	-0.44916	179.9366	-53.6641	545.5792	-34.7813	216.9066	65.4255	664.9381	-0.0592	0.0182	-0.0073	-0.0462	0.0165	0.9585
37.7514	26.0059	160.6934	10.7973	-51.5707	-0.77431	144.7359	-53.7759	576.7444	-39.6936	228.581	71.1464	700.478	-0.0592	0.0182	-0.0073	-0.0462	0.0165	0.9585
37.7633	19.3134	126.4502	8.7975	-40.4589	-1.3	114.0864	-54.2048	608.3888	-45.2549	240.3672	77.7175	736.1616	-0.0592	0.0182	-0.0073	-0.0462	0.0165	0.9585
37.7752	13.4178	97.252	7.2408	-30.999	-1.9255	87.9493	-54.883	640.0164	-51.2127	252.1005	84.787	771.3695	-0.0592	0.0182	-0.0073	-0.0462	0.0165	0.9585
37.7871	8.4249	72.7886	6.0499	-23.0932	-2.5526	66.0101	-55.6505	671.0689	-57.0762	263.6056	91.7357	805.3855	-0.0592	0.0182	-0.0073	-0.0462	0.0165	0.9585
37.7991	4.3369	52.6446	5.0682	-16.6079	-3.0446	47.9241	-56.2876	700.7991	-62.5714	274.6183	98.1422	837.3111	-0.0592	0.0182	-0.0073	-0.0462	0.0165	0.9585
37.811	1.2088	36.369	4.2095	-11.3975	-3.3178	33.2936	-56.5892	728.2604	-67.3844	284.7961	103.5756	866.0493	-0.0592	0.0182	-0.0073	-0.0462	0.0165	0.9585
37.8229	-0.92637	23.5849	3.3699	-7.3341	-3.2763	21.8063	-56.4186	752.396	-71.4375	293.7364	107.8816	890.4085	-0.0592	0.0182	-0.0073	-0.0462	0.0165	0.9585
37.8349	-2.0439	13.8962	2.5351	-4.2835	-2.9089	13.1002	-55.7072	772.2334	-74.66	301.0655	110.9579	909.3314	-0.0592	0.0182	-0.0073	-0.0462	0.0165	0.9585
37.8468	-2.2718	6.9517	1.7016	-2.1222	-2.2575	6.8585	-54.4401	787.028	-77.0467	306.4943	112.7999	922.0573	-0.0592	0.0182	-0.0073	-0.0462	0.0165	0.9585
37.8587	-1.9373	2.4012	0.97749	-0.72494	-1.5222	2.7492	-52.6377	796.3897	-78.5897	309.8688	113.4153	928.2436	-0.0592	0.0182	-0.0073	-0.0462	0.0165	0.9585
37.8706	-1.3522	-0.21442	0.41967	0.06135	-0.85047	0.37802	-50.3201	800.3078	-79.3013	311.1805	112.8399	927.9827	-0.0592	0.0182	-0.0073	-0.0462	0.0165	0.9585
37.8826	-0.71178	-1.4092	0.036821	0.40305	-0.31364	-0.70973	-47.5365	799.1541	-79.2654	310.5717	111.1955	921.8067	-0.0592	0.0182	-0.0073	-0.0462	0.0165	0.9585
37.8945	-0.12472	-1.6694	-0.20325	0.45512	0.076373	-0.95055	-44.3684	793.6915	-78.5754	308.3331	108.6345	910.6698	-0.0592	0.0182	-0.0073	-0.0462	0.0165	0.9585
37.9064	0.34828	-1.3686	-0.33049	0.33871	0.32697	-0.68131	-40.9519	784.9282	-77.4364	304.8467	105.4341	895.7946	-0.0592	0.0182	-0.0073	-0.0462	0.0165	0.9585
37.9184	0.69914	-0.78728	-0.38306	0.1438	0.47187	-0.15342	-37.4427	773.9998	-75.9916	300.5474	101.8235	878.5198	-0.0592	0.0182	-0.0073	-0.0462	0.0165	0.9585
37.9303	0.91975	-0.1158	-0.39058	-0.068842	0.54126	0.48501	-33.9969	762.0945	-74.436	295.8873	98.0794	860.2231	-0.0592	0.0182	-0.0073	-0.0462	0.0165	0.9585
37.9422	1.0472	0.53945	-0.37129	-0.26762	0.56402	1.1252	-30.7588	750.3467	-72.8682	291.3042	94.3765	842.1918	-0.0592	0.0182	-0.0073	-0.0462	0.0165	0.9585
37.9541	1.0813	1.1144	-0.34415	-0.43678	0.56286	1.7112	-27.8295	739.7223	-71.4162	287.171	90.8973	825.5049	-0.0592	0.0182	-0.0073	-0.0462	0.0165	0.9585
37.9661	1.0699	1.5669	-0.31496	-0.5665	0.55071	2.1741	-25.2444	730.9373	-70.124	283.767	87.7222	810.9295	-0.0592	0.0182	-0.0073	-0.0462	0.0165	0.9585
37.978	1.005	1.8708	-0.28679	-0.6479	0.52041	2.4998	-22.9773	724.3745	-69.0349	281.2472	84.9015	798.8314	-0.0592	0.0182	-0.0073	-0.0462	0.0165	0.9585
37.9899	0.92716	1.9622	-0.25141	-0.66278	0.46739	2.5962	-20.9116	720.1368	-68.1316	279.6618	82.388	789.2408	-0.0592	0.0182	-0.0073	-0.0462	0.0165	0.9585
38.0019	0.81354	1.8007	-0.20195	-0.59523	0.37736	2.4203	-18.872	718.0856	-67.3676	278.9698	80.0775	781.9097	-0.0592	0.0182	-0.0073	-0.0462	0.0165	0.9585
38.0138	0.6997	1.2793	-0.13061	-0.41278	0.25057	1.8108	-16.6803	717.9036	-66.6802	279.0635	77.8396	776.3939	-0.0592	0.0182	-0.0073	-0.0462	0.0165	0.9585
38.0257	0.56042	0.31816	-0.044524	-0.085914	0.088883	0.67515	-14.1508	719.2141	-66.0067	279.8056	75.5385	772.1988	-0.0592	0.0182	-0.0073	-0.0462	0.0165	0.9585
38.0376	0.44991	-1.1921	0.047675	0.42072	-0.077115	-1.144	-11.1519	721.6159	-65.3201	281.0433	73.0879	768.8356	-0.0592	0.0182	-0.0073	-0.0462	0.0165	0.9585
38.0496	0.36616	-3.269	0.11761	1.1159	-0.2063	-3.6506	-7.5958	724.7369	-64.5983	282.6254	70.4257	765.8854	-0.0592	0.0182	-0.0073	-0.0462	0.0165	0.9585
38.0615	0.39085	-5.8611	0.13699	1.9784	-0.2334	-6.8022	-3.4496	728.2227	-63.8602	284.399	67.5532	763.0008	-0.0592	0.0182	-0.0073	-0.0462	0.0165	0.9585
38.0734	0.55819	-8.702	0.048639	2.9186	-0.077227	-10.2623	1.2209	731.7042	-63.1015	286.1999	64.4825	759.8852	-0.0592	0.0182	-0.0073	-0.0462	0.0165	0.9585
38.0854	0.97269	-11.282	-0.21154	3.7599	0.36938	-13.4384	6.2675	734.7731	-62.3414	287.8383	61.2845	756.2571	-0.0592	0.0182	-0.0073	-0.0462	0.0165	0.9585
38.0973	1.6897	-12.6877	-0.72165	4.1913	1.2173	-15.2086	11.4527	736.9403	-61.5722	289.0859	58.0373	751.8061	-0.0592	0.0182	-0.0073	-0.0462	0.0165	0.9585
38.1092	2.8181	-11.5571	-1.5543	3.7483	2.5838	-13.9586	16.5009	737.6167	-60.8128	289.6724	54.8622	746.1431	-0.0592	0.0182	-0.0073	-0.0462	0.0165	0.9585
38.1211	4.3729	-6.0057	-2.7605	1.7957	4.5354	-7.4268	21.1114	736.1949	-60.0538	289.3203	51.8579	738.8799	-0.0592	0.0182	-0.0073	-0.0462	0.0165	0.9585
38.1331	6.3417	6.2825	-4.3396	-2.4481	7.0639	7.1275	25.0364	732.0641	-59.3065	287.7634	49.1293	729.5959	-0.0592	0.0182	-0.0073	-0.0462	0.0165	0.9585
38.145	8.5368	27.8889	-6.1892	-9.8479	9.9819	32.8013	28.0889	724.7029	-58.5366	284.7849	46.7194	717.9285	-0.0592	0.0182	-0.0073	-0.0462	0.0165	0.9585
